<?xml version="1.0" encoding="UTF-8"?>
<svg id="Layer_1" data-name="Layer 1" xmlns="http://www.w3.org/2000/svg" viewBox="0 0 595.28 295.77">
  <defs>
    <style>
      .cls-1 {
        fill: #272324;
      }

      .cls-1, .cls-2, .cls-3 {
        stroke-width: 0px;
      }

      .cls-2 {
        fill: #f1efef;
      }

      .cls-3 {
        fill: #c1262d;
      }
    </style>
  </defs>
  <path class="cls-1" d="m573.76,295.43H21.43c-9.08-1.89-15.45-7.52-20.53-14.91V19.63c2.58-3.02,2.42-8.2,7.39-9.35-.2,7.29-2.7,14.24-2.67,21.65.21,47.81.31,95.63.01,143.44-.05,7.24,2.32,8.62,9.04,8.62,188.39-.15,376.79-.13,565.18.09,7.01,0,8.84-1.86,8.79-8.83-.33-47.81-.21-95.63-.22-143.44,0-18.98-6.03-25.11-24.79-25.11-174.4,0-348.81.02-523.21-.03-11.01,0-21.98-.37-32.44,3.92C8.51,1.85,17.19,4.53,21.43.99h552.33c15.13,4.87,19.5,15.61,19.41,30.86-.45,78.1-.18,156.21-.2,234.32,0,18.44-3.02,22.91-19.21,29.26ZM40.09,234.38c0,9.85-.02,17.9,0,25.96,0,2.66-.82,5.63,3.83,5.51,12.41-.3,24.86.3,37.22-.55,7.21-.5,12.04-5.24,13.87-12.77,1.56-6.42-.04-11.29-5.45-14.95-3.42-2.32-3.42-4.43-.4-7.35,4.52-4.36,4.59-10.11,2.3-15.3-2.54-5.76-7.67-8.74-14.17-8.84-2.48-.04-4.97,0-7.45.04-9.56.2-22.38-3.24-27.81,1.59-6.28,5.59-1.08,18.66-1.96,26.66Zm437.27,5.8c.74-.59,1.39-1.24,2.16-1.7,8.05-4.88,11.74-11.2,8.52-20.96-2.97-8.99-9.55-11.34-17.8-11.42-9.62-.09-19.25.34-28.85-.09-5.38-.24-7.05,1.55-6.97,6.76.23,14.87.49,29.76-.09,44.61-.28,7.14,2.08,8.51,8.84,8.78,8.71.34,12.79-1.8,11.07-11.04-.39-2.1-.4-4.38-.02-6.48.38-2.08-1.81-5.49,2-6.02,2.57-.36,4.57,1.43,5.79,3.87.97,1.93,2.58,3.63,3.16,5.65,3.68,12.85,12.73,15.77,24.65,13.69,1.06-.18,2.14-.25,4.14-.48-5.3-9.29-7.75-19.16-16.6-25.18Zm-328.26-.02c10.8-7.51,13.97-13.91,11.4-22.24-2.59-8.39-8.91-11.88-21.49-11.85-7.44.02-14.94.63-22.3-.12-8.08-.82-10.92,1.67-10.51,9.97.64,12.97.97,26.06-.07,38.98-.72,8.96,1.33,11.81,10.57,11.25,6.56-.4,9.9-1.36,8.88-8.62-.47-3.34-.2-6.8-.04-10.2.08-1.7-.78-4.17,1.19-4.91,2.1-.79,4.55.53,5.64,2.25,3.3,5.2,6.12,10.7,9.21,16.04,1.49,2.58,2.43,5.57,6.65,5.25,5.45-.41,10.95-.1,16.65-.1-4.11-12.78-8.15-19.36-15.79-25.69Zm51.19,27.16c19.45.18,31.33-11.4,31.4-30.62.08-20.31-11.57-31.76-32.42-31.88-19.31-.11-30.12,10.85-30.4,30.85-.28,19.8,11.29,31.46,31.42,31.65Zm159.66-30.66c-.05,0-.1,0-.15,0,0-8.37.02-16.75-.01-25.12,0-2.07.57-4.99-2.38-5.17-5.21-.33-10.92-1.19-15.55.53-3.2,1.18-.95,6.77-1.32,10.36-.39,3.81,1.14,8.35-4.48,9.78-11.43,2.9-15.33-.07-15.4-11.8,0-1.24-.05-2.48,0-3.72.36-8.47-6.16-5.05-9.9-5.24-3.61-.18-9.25-2.59-9.16,5.16.19,16.43,0,32.87,0,49.31,0,1.77-.28,4.46,1.94,4.63,5.22.41,10.81,1.17,15.62-.28,3.08-.93,1.22-6.09,1.44-9.37.13-1.85.52-3.8.13-5.56-1.6-7.41,1.83-8.39,8.51-8.82,9.24-.59,13.19,1.93,11.36,11.43-.35,1.8.2,3.76-.1,5.57-1.61,9.56,5.19,7.27,10.36,7.56,5.67.31,10.28.4,9.27-7.86-.85-7.03-.18-14.25-.18-21.38Zm190.53-14.35c-2.15-16.97-20.99-19.43-34.74-16.57-6.79,1.41-13.32,3.39-14.78,11.75-1.86,10.7,1.41,17.06,11.74,21.12,5.14,2.02,10.63,3.15,15.91,4.83,3.29,1.05,5.37,3.19,4.53,6.95-.86,3.86-3.83,4.15-7.18,4.31-4.8.24-7.27-2.5-9.57-6.06-1.8-2.79-15.86-5.23-17.41-2.66-2.41,4.02.28,7.94,2.57,11.45,8.43,12.87,35.85,13.78,46.32,1.57,8.16-9.52,5.91-20.21-4.83-27.16-5.21-3.38-10.85-3.92-16.44-5.34-2.85-.72-6.15-.81-7.17-4.31-.47-1.62.39-3.35,2.27-3.13,3.19.37,7.71-3.02,9.22,2.58.88,3.28,3.28,2.82,5.07,2.16,4.53-1.69,9.24-.48,14.47-1.49Zm-154.4,43.56c8.63,0,15.79-.25,22.91.08,5.18.24,5.31-2.69,5.22-6.44-.09-3.77.63-7.59-5.38-7.27-6.81.36-13.67-.12-20.49.15-4.53.18-6.61-.8-6.77-6.03-.16-5.31,2.46-5.37,6.21-5.29,5.28.11,10.57-.21,15.84.07,4.64.24,7.21-.28,7.34-6.2.14-6.38-2.55-7.1-7.7-6.78-5.57.36-11.18-.06-16.76.15-3.63.13-4.89-1.29-4.96-4.85-.08-3.96,1.9-4.56,5.2-4.48,6.52.16,13.05-.17,19.56.12,4.55.2,6.7-.74,6.39-6.02-.27-4.73-.79-7.36-6.58-7.16-12.41.43-24.85.33-37.27.07-4.82-.1-6.54,1.3-6.34,6.3.38,9.6-.15,19.24.17,28.84.27,7.96-3.59,18.27,1.52,23.24,5.09,4.95,15.39.8,21.89,1.5Zm-131.16-59.79v.04c-6.82,0-13.69.51-20.45-.14-7.1-.69-8.86,1.89-8.87,8.73-.01,8.72,5.86,6.51,10.08,6.1,7.27-.71,9.65,1.65,9.13,9.05-.69,9.86.36,19.84-.33,29.7-.57,8.03,4.53,6.53,8.83,6.22,4.45-.33,11.16,3.03,10.71-6.47-.51-10.81,0-21.66-.22-32.49-.09-4.36,1.33-6.35,5.85-5.92,2.46.23,4.99-.25,7.43.08,7.17.95,5.11-4.29,5.3-7.82.19-3.58,1.08-7.56-5.14-7.18-7.41.45-14.88.11-22.32.11Z"/>
  <path class="cls-2" d="m573.76,295.43c16.19-6.35,19.21-10.82,19.21-29.26.02-78.11-.25-156.22.2-234.32.09-15.25-4.28-25.99-19.41-30.86,6.84,0,16.35-2.67,19.77.75,3.42,3.42.75,12.92.75,19.75,0,88.83-.09,177.66.18,266.49.02,6.38-1.21,8.53-7.66,7.57-4.26-.63-8.69-.12-13.04-.12Z"/>
  <path class="cls-2" d="m8.29,10.29c-4.97,1.14-4.81,6.32-7.39,9.34C.9,13.41-1.53,4.78,1.58,1.67c3.11-3.11,11.76-.68,17.98-.68h1.87c-4.24,3.54-12.92.86-13.45,9.59l.31-.3Z"/>
  <path class="cls-2" d="m.9,280.52c5.08,7.39,11.44,13.02,20.53,14.91h-5.6q-14.93,0-14.93-14.91Z"/>
  <path class="cls-2" d="m7.98,10.58c10.45-4.29,21.43-3.92,32.44-3.92,174.4.05,348.81.03,523.21.03,18.76,0,24.79,6.13,24.79,25.11,0,47.81-.11,95.63.22,143.44.05,6.97-1.79,8.84-8.79,8.83-188.39-.22-376.79-.24-565.18-.09-6.71,0-9.08-1.38-9.04-8.62.3-47.81.2-95.62-.01-143.44-.03-7.41,2.47-14.36,2.67-21.65,0,0-.32.3-.32.3Zm136.71,82c6.3-2.72,11.47-5.74,15.01-10.97,6.66-9.85,7.39-20.35,2.76-31-5.91-13.59-19.23-18.53-31.56-19.37-27.55-1.87-55.3-.67-82.97-.87-4.09-.03-6.24.65-6.22,5.5.14,41.3.11,82.59,0,123.89-.01,3.97,1.24,5.46,5.34,5.35,30.72-.79,61.5,1.75,92.16-1.98,16.51-2.01,29.42-13.61,31.88-29.32,1.95-12.49-2.11-31.27-19.3-37.47-2.24-.81-4.26-2.23-7.1-3.76Zm172.68-14.49c-.9-.23-1.79-.45-2.69-.68,0-13.54-.15-27.09.09-40.63.08-4.61-.97-6.75-6.12-6.57-9.62.33-19.27.22-28.9-.03-6.51-.17-8.56,2.76-8.54,9.02.16,39.75.15,79.5-.06,119.25-.03,5.43,1.86,6.91,6.99,6.72,8.69-.33,17.46-.66,26.1.09,8.71.75,11.82-2.48,10.45-10.82-2.73-16.56,2.05-30.25,15.41-40.85,3.53-2.8,6.78-3.86,9.21.42,6.21,10.9,11.63,22.27,18.09,33.01,3.77,6.28,4.17,16.83,12.93,17.58,15.88,1.35,31.95.38,49.11.38-1.41-2.91-2.04-4.61-2.98-6.1-14.78-23.28-29.32-46.73-44.61-69.68-4.38-6.57-3.75-10.23,1.82-15.43,12.09-11.3,23.41-23.41,35.22-35.01,1.76-1.73,4.42-2.64,3.43-5.73-1.01-3.16-3.81-2.59-6.25-2.59-13.68,0-27.36.19-41.04-.05-4.29-.07-6.66,1.9-9.28,4.87-12.66,14.4-25.57,28.59-38.39,42.85Zm117.68,18.96s-.06,0-.1,0c0,19.56.28,39.13-.15,58.68-.16,7.2,1.92,9.57,9.34,9.47,29.84-.38,59.69-.17,89.54-.15,19.94.01,19.56.03,19.89-19.9.14-8.51-3.54-10.59-11.02-10.47-15.54.26-31.09.29-46.63.08-20.63-.28-16.98,4.11-17.78-18.47-.24-6.82,1.98-9.14,9.06-8.89,15.84.55,31.71.32,47.56.09,9.74-.14,11.22-2.83,11.4-15.45.12-8.32-3.26-11.61-11.61-11.43-16.16.36-32.35-.37-48.49.23-10.45.39-7.31-6.72-7.7-11.9-.39-5.23-1.28-10.51,7.4-10.18,15.21.57,30.46.12,45.7.11,20.66,0,20.44,0,20.11-21.07-.09-5.66-1.69-7.53-7.39-7.5-33.89.18-67.78.19-101.66-.1-6.4-.06-7.67,2.37-7.57,8.15.31,19.56.12,39.12.12,58.68Zm-195.28.22c0-19.84-.18-39.69.12-59.52.08-5.53-1.27-7.81-7.19-7.54-9.91.45-19.86.29-29.8.17-4.45-.05-6.65,1.05-6.62,6.23.25,40.61.32,81.23.17,121.84-.02,5.62,2.33,6.78,7.18,6.67,9.62-.21,19.26-.35,28.86.04,5.74.23,7.45-1.77,7.36-7.44-.3-20.15-.12-40.3-.09-60.45Z"/>
  <path class="cls-2" d="m40.09,234.38c.88-8-4.32-21.07,1.96-26.66,5.43-4.83,18.25-1.39,27.81-1.59,2.48-.05,4.97-.08,7.45-.04,6.5.1,11.63,3.08,14.17,8.84,2.29,5.19,2.22,10.94-2.3,15.3-3.03,2.92-3.03,5.03.4,7.35,5.41,3.66,7.01,8.53,5.45,14.95-1.83,7.54-6.66,12.28-13.87,12.77-12.36.85-24.81.26-37.22.55-4.65.11-3.82-2.85-3.83-5.51-.03-8.06,0-16.12,0-25.96Zm26.29,7.03c-3.87-.32-7.81-1-7.71,6.01.09,5.98,3.22,5.59,7.07,5.42,4.53-.2,10.29.89,10.14-6.13-.12-5.56-4.8-5.5-9.51-5.3Zm-1.12-12.52c4.29,0,8.92.55,8.64-5.56-.26-5.67-4.98-4.29-8.4-4.67-4.14-.46-6.79.11-6.75,5.71.05,5.95,3.78,4.18,6.51,4.52Z"/>
  <path class="cls-2" d="m477.36,240.18c8.86,6.02,11.3,15.89,16.6,25.18-2,.23-3.08.29-4.14.48-11.92,2.08-20.97-.85-24.65-13.69-.58-2.02-2.2-3.72-3.16-5.65-1.22-2.45-3.23-4.23-5.79-3.87-3.81.53-1.62,3.94-2,6.02-.39,2.09-.38,4.38.02,6.48,1.72,9.24-2.36,11.38-11.07,11.04-6.76-.27-9.12-1.64-8.84-8.78.58-14.85.32-29.74.09-44.61-.08-5.2,1.58-7,6.97-6.76,9.6.43,19.23,0,28.85.09,8.25.08,14.83,2.43,17.8,11.42,3.23,9.77-.47,16.08-8.52,20.96-.76.46-1.41,1.11-2.16,1.7Zm-15.49-21.58c-4.25,0-8.33-1.2-7.79,4.99.33,3.81-.29,7.56,5.47,6.68,4.38-.67,10.2.08,10.32-6.25.1-5.18-4.59-5.56-8-5.42Z"/>
  <path class="cls-2" d="m149.1,240.15c7.63,6.32,11.67,12.91,15.79,25.69-5.7,0-11.21-.31-16.65.1-4.22.32-5.16-2.67-6.65-5.25-3.09-5.34-5.91-10.84-9.21-16.04-1.09-1.72-3.54-3.04-5.64-2.25-1.98.74-1.11,3.21-1.19,4.91-.16,3.4-.43,6.86.04,10.2,1.02,7.27-2.32,8.23-8.88,8.62-9.25.56-11.29-2.29-10.57-11.25,1.04-12.92.71-26.01.07-38.98-.41-8.3,2.43-10.79,10.51-9.97,7.36.75,14.86.14,22.3.12,12.58-.03,18.9,3.46,21.49,11.85,2.57,8.34-.6,14.73-11.4,22.24Zm-23.58-16.56c-.46,3.93-.13,7.49,5.43,6.58,4.24-.69,10.1.58,10.37-6.14.24-6.11-4.91-5.2-8.68-5.26-3.22-.06-8.13-1.92-7.12,4.82Z"/>
  <path class="cls-2" d="m200.28,267.31c-20.13-.18-31.71-11.84-31.42-31.65.29-20,11.09-30.96,30.4-30.85,20.85.12,32.5,11.57,32.42,31.88-.07,19.22-11.95,30.8-31.4,30.62Zm12.2-30.93c.33-9.93-4.13-16.5-11.59-17.08-7.33-.57-12.82,5.99-13.16,15.73-.39,11.16,4.3,17.66,12.76,17.68,7.79.02,11.63-5.21,11.99-16.33Z"/>
  <path class="cls-2" d="m359.95,236.65c0,7.13-.68,14.35.18,21.38,1,8.26-3.6,8.17-9.27,7.86-5.17-.28-11.97,2-10.36-7.56.3-1.81-.24-3.77.1-5.57,1.83-9.5-2.12-12.01-11.36-11.43-6.68.42-10.12,1.4-8.51,8.82.38,1.76,0,3.71-.13,5.56-.23,3.28,1.64,8.44-1.44,9.37-4.81,1.46-10.4.69-15.62.28-2.22-.17-1.94-2.86-1.94-4.63-.02-16.44.18-32.88,0-49.31-.09-7.75,5.55-5.34,9.16-5.16,3.74.19,10.27-3.24,9.9,5.24-.05,1.24,0,2.48,0,3.72.07,11.73,3.98,14.7,15.4,11.8,5.62-1.43,4.09-5.97,4.48-9.78.37-3.6-1.88-9.18,1.32-10.36,4.63-1.71,10.34-.85,15.55-.53,2.95.19,2.38,3.1,2.38,5.17.04,8.37.01,16.75.01,25.12.05,0,.1,0,.15,0Z"/>
  <path class="cls-2" d="m550.48,222.3c-5.23,1.01-9.94-.2-14.47,1.49-1.78.67-4.19,1.12-5.07-2.16-1.5-5.6-6.03-2.22-9.22-2.58-1.89-.22-2.75,1.51-2.27,3.13,1.02,3.5,4.32,3.58,7.17,4.31,5.58,1.41,11.23,1.96,16.44,5.34,10.73,6.96,12.99,17.64,4.83,27.16-10.47,12.22-37.89,11.3-46.32-1.57-2.29-3.5-4.98-7.43-2.57-11.45,1.55-2.57,15.61-.13,17.41,2.66,2.29,3.56,4.77,6.29,9.57,6.06,3.35-.16,6.31-.45,7.18-4.31.84-3.76-1.24-5.9-4.53-6.95-5.28-1.68-10.77-2.81-15.91-4.83-10.33-4.06-13.6-10.43-11.74-21.12,1.46-8.37,7.99-10.34,14.78-11.75,13.75-2.86,32.59-.4,34.74,16.57Z"/>
  <path class="cls-2" d="m396.08,265.86c-6.5-.7-16.8,3.45-21.89-1.5-5.12-4.97-1.26-15.28-1.52-23.24-.32-9.6.21-19.24-.17-28.84-.2-5,1.53-6.4,6.34-6.3,12.42.26,24.86.36,37.27-.07,5.79-.2,6.31,2.43,6.58,7.16.3,5.27-1.84,6.22-6.39,6.02-6.51-.29-13.04.04-19.56-.12-3.3-.08-5.28.51-5.2,4.48.07,3.57,1.33,4.99,4.96,4.85,5.58-.21,11.2.21,16.76-.15,5.15-.33,7.84.4,7.7,6.78-.13,5.92-2.7,6.44-7.34,6.2-5.27-.27-10.56.04-15.84-.07-3.75-.08-6.36-.02-6.21,5.29.16,5.23,2.23,6.22,6.77,6.03,6.82-.28,13.68.21,20.49-.15,6-.32,5.28,3.5,5.38,7.27.09,3.75-.04,6.68-5.22,6.44-7.13-.33-14.28-.08-22.91-.08Z"/>
  <path class="cls-2" d="m264.92,206.07c7.44,0,14.9.35,22.32-.11,6.22-.38,5.34,3.6,5.14,7.18-.19,3.53,1.87,8.77-5.3,7.82-2.44-.32-4.97.15-7.43-.08-4.52-.42-5.94,1.56-5.85,5.92.22,10.83-.29,21.68.22,32.49.45,9.5-6.26,6.14-10.71,6.47-4.3.32-9.4,1.82-8.83-6.22.7-9.86-.35-19.84.33-29.7.51-7.4-1.86-9.76-9.13-9.05-4.22.41-10.1,2.62-10.08-6.1.01-6.84,1.76-9.41,8.87-8.73,6.76.65,13.63.14,20.45.14v-.04Z"/>
  <path class="cls-3" d="m144.69,92.58c2.84,1.52,4.86,2.95,7.1,3.76,17.19,6.21,21.26,24.98,19.3,37.47-2.46,15.71-15.37,27.32-31.88,29.32-30.66,3.72-61.45,1.18-92.16,1.98-4.1.11-5.35-1.38-5.34-5.35.11-41.3.14-82.59,0-123.89-.02-4.85,2.13-5.53,6.22-5.5,27.67.21,55.42-.99,82.97.87,12.34.84,25.65,5.78,31.56,19.37,4.63,10.65,3.89,21.14-2.76,31-3.53,5.23-8.71,8.25-15.01,10.97Zm-42.04,16.63q-17.86-.05-17.4,18c.02.93.14,1.87.06,2.79-.41,4.78,1.72,6.48,6.52,6.61,6.36.17,12.62-.64,19.17,1.16,7.46,2.05,16.14-5.66,16.73-12.98.8-9.92-3.43-14.75-13.9-15.54-3.71-.28-7.46-.04-11.19-.04Zm-4.25-25.97c6.17.23,11.39.12,16.5-1.59,5.51-1.85,7.85-6.82,8.07-11.28.2-4.08-1.69-9.1-7-10.98-9.06-3.21-18.35-1.88-27.58-1.58-.93.03-2.5,1.28-2.6,2.1-.83,7.06-2.23,14.62.62,21.02,2.05,4.6,8.49,1.54,11.99,2.31Z"/>
  <path class="cls-3" d="m317.37,78.1c12.82-14.26,25.72-28.45,38.39-42.85,2.61-2.97,4.99-4.95,9.28-4.87,13.68.24,27.36.06,41.04.05,2.44,0,5.24-.57,6.25,2.59.99,3.1-1.67,4-3.43,5.73-11.81,11.6-23.13,23.72-35.22,35.01-5.57,5.2-6.2,8.86-1.82,15.43,15.29,22.94,29.82,46.39,44.61,69.68.95,1.49,1.57,3.19,2.98,6.1-17.16,0-33.23.97-49.11-.38-8.76-.74-9.16-11.3-12.93-17.58-6.46-10.75-11.88-22.11-18.09-33.01-2.44-4.28-5.68-3.22-9.21-.42-13.37,10.6-18.14,24.29-15.41,40.85,1.38,8.35-1.74,11.58-10.45,10.82-8.64-.75-17.41-.42-26.1-.09-5.13.2-7.02-1.29-6.99-6.72.21-39.75.22-79.5.06-119.25-.03-6.26,2.02-9.19,8.54-9.02,9.63.25,19.28.36,28.9.03,5.15-.17,6.2,1.96,6.12,6.57-.24,13.54-.09,27.09-.09,40.63.9.23,1.79.45,2.69.68Z"/>
  <path class="cls-3" d="m435.05,97.05c0-19.56.19-39.13-.12-58.68-.09-5.78,1.18-8.21,7.57-8.15,33.89.3,67.78.28,101.66.1,5.7-.03,7.3,1.84,7.39,7.5.33,21.08.55,21.07-20.11,21.07-15.23,0-30.48.46-45.7-.11-8.69-.33-7.8,4.95-7.4,10.18.39,5.17-2.75,12.29,7.7,11.9,16.14-.61,32.33.12,48.49-.23,8.35-.18,11.73,3.1,11.61,11.43-.18,12.62-1.66,15.31-11.4,15.45-15.85.23-31.72.45-47.56-.09-7.09-.24-9.3,2.07-9.06,8.89.79,22.58-2.85,18.19,17.78,18.47,15.54.21,31.09.18,46.63-.08,7.48-.13,11.16,1.96,11.02,10.47-.33,19.92.05,19.91-19.89,19.9-29.85-.02-59.7-.23-89.54.15-7.41.1-9.49-2.27-9.34-9.47.43-19.55.15-39.12.15-58.68.03,0,.06,0,.1,0Z"/>
  <path class="cls-3" d="m239.76,97.27c-.01,20.15-.19,40.31.11,60.45.08,5.67-1.62,7.67-7.36,7.44-9.61-.39-19.25-.25-28.86-.04-4.86.1-7.2-1.06-7.18-6.67.15-40.61.08-81.23-.17-121.84-.03-5.18,2.17-6.28,6.62-6.23,9.93.12,19.88.27,29.8-.17,5.92-.27,7.27,2.01,7.19,7.54-.3,19.84-.12,39.68-.13,59.52Z"/>
  <path class="cls-1" d="m66.38,241.41c4.71-.21,9.38-.26,9.51,5.3.15,7.02-5.61,5.93-10.14,6.13-3.85.17-6.99.55-7.07-5.42-.1-7,3.83-6.32,7.71-6.01Z"/>
  <path class="cls-1" d="m65.26,228.89c-2.73-.34-6.46,1.43-6.51-4.52-.04-5.6,2.61-6.16,6.75-5.71,3.42.38,8.14-1,8.4,4.67.28,6.11-4.35,5.57-8.64,5.56Z"/>
  <path class="cls-1" d="m461.87,218.59c3.41-.14,8.1.24,8,5.42-.12,6.33-5.94,5.58-10.32,6.25-5.76.88-5.14-2.88-5.47-6.68-.54-6.19,3.54-4.99,7.79-4.99Z"/>
  <path class="cls-1" d="m125.52,223.59c-1.01-6.74,3.9-4.88,7.12-4.82,3.77.07,8.93-.85,8.68,5.26-.27,6.72-6.13,5.44-10.37,6.14-5.56.91-5.89-2.66-5.43-6.58Z"/>
  <path class="cls-1" d="m212.49,236.38c-.37,11.12-4.21,16.35-11.99,16.33-8.46-.02-13.15-6.52-12.76-17.68.34-9.74,5.83-16.3,13.16-15.73,7.46.58,11.92,7.15,11.59,17.08Z"/>
  <path class="cls-2" d="m102.65,109.21c3.73,0,7.48-.24,11.19.04,10.47.79,14.7,5.63,13.9,15.54-.59,7.32-9.27,15.03-16.73,12.98-6.55-1.8-12.81-.99-19.17-1.16-4.8-.13-6.94-1.83-6.52-6.61.08-.92-.03-1.86-.06-2.79q-.47-18.05,17.4-18Z"/>
  <path class="cls-2" d="m98.4,83.24c-3.5-.77-9.94,2.29-11.99-2.31-2.85-6.4-1.45-13.97-.62-21.02.1-.82,1.68-2.07,2.6-2.1,9.23-.3,18.52-1.63,27.58,1.58,5.31,1.88,7.2,6.9,7,10.98-.22,4.45-2.56,9.43-8.07,11.28-5.11,1.71-10.33,1.82-16.5,1.59Z"/>
</svg>