<?xml version="1.0" encoding="utf-8"?>
<!-- Generator: Adobe Illustrator 28.0.0, SVG Export Plug-In . SVG Version: 6.00 Build 0)  -->
<svg version="1.1" id="Layer_1" xmlns="http://www.w3.org/2000/svg" xmlns:xlink="http://www.w3.org/1999/xlink" x="0px" y="0px"
	 viewBox="0 0 492 219" enable-background="new 0 0 492 219" xml:space="preserve">
<path fill="#161414" d="M116.2,104.2c-2.8-1.6-4.8,0.2-6.8,0.7c-3.5,0.9-7,2.1-10.7,0.6c-1.7-0.7-2.8-1.9-2.8-3.7c0-1.6,1-3,2.6-3.3
	c11.7-2.3,19.5-10.7,28.1-17.7c13.6-11.2,26.4-23.2,37.2-37.1c1.4-1.8,4.3-3.9,3.1-6.2c-0.9-1.5-4.2-0.9-6.5-0.8
	c-18.9,0.9-34.7,9.5-48.9,20.9C88.7,75.9,72,98.5,65.4,127.5c-1.5,6.8-2,13.7-0.8,20.7c1.8,10.2,9.6,16.5,21.5,17.1
	c13.3,0.6,25.5-2.9,37.1-9.2c21.7-11.8,41.5-25.9,56.9-45.6c1.4-1.8,3.1-2.7,5.1-1.4c2.2,1.3,1.7,3.5,0.8,5.3
	c-1.2,2.3-2.7,4.5-4.4,7.2c3.1,0.1,7.1-1.6,7.5,3.5c0,0.4,1.7,1,2.6,1.1c21.4,2.5,42.5,2.9,62.1-7.8c3.5-1.9,6.6-4.4,9.9-6.7
	c2-1.3,1.8-2.6-0.2-3.6c-3.7-1.9-7.4-3.7-11.1-5.4c-6.7-3-13.2-6.2-18.6-11.3c-2.7-2.6-5-5.4-5.6-9.1c-2.6-16.2-2-31.2,12.8-42.7
	c24.5-19,52.1-26.6,82.8-25.5c17.4,0.6,34.7,1.4,51.4,7c8.8,2.9,16.7,7.3,22.9,14.2c5.4,6,5.9,12.4,3.3,20.2
	c-4.3,13.3-13,22.9-23.1,31.8c-16.5,14.6-32.9,29.3-46.3,47c-1.8,2.4-3.3,4.9-5,7.4c-2.4,3.5-0.1,4.9,2.8,5.5
	c4.2,1,8.2-0.2,12.1-1.7c13.7-5.2,26.1-13.1,38.6-20.6c22.6-13.6,44.7-27.9,68.9-38.6c6.6-2.9,13.1-5.8,20.5-2.9
	c1.9,0.7,3.7,1.6,5.2,2.8c1.7,1.4,3.4,3,2.8,5.4c-0.6,2.7-3.1,2.6-5.2,2.9c-1.8,0.3-3.6,0.7-5.7,1.2c1,1.1,1.8,1.8,2.5,2.7
	c2.6,3.5,1.9,6.1-2.3,6.8c-16.5,2.8-31.2,10.1-45.2,18.7c-19.6,12-37.9,25.6-52.7,43.4c-1.1,1.3-2.1,2.6-3,3.9c-1,1.5-2.1,3.1-1.1,5
	c1.1,2.2,3,2.4,5.1,1.9c1.4-0.3,2.7-0.4,3,1.5c0.2,1.4-0.1,2.7-1.4,3.4c-2.7,1.5-5.5,2.2-8.6,2c-1.3-0.1-3.4-2.4-3.5,0.9
	c-0.1,2.4,1.1,4.2,3.8,4.2c1.6,0,3.8-1.7,4.4,1.2c0.6,2.9-1.8,3.6-3.7,4.4c-5,2.3-9.4,0.5-13.3-2.7c-4.4-3.7-5.3-8.6-4.1-14
	c1.5-6.3,5-11.9,6.1-18.4c-1.1-1.1-2,0.2-2.9,0.6c-4.9,2.4-9.9,4.7-15.2,6.2c-13.7,4-20.3-2.5-22.3-15.5c-0.4-2.2-0.1-4.6,0.2-6.9
	c2.5-17.7,10.2-32.7,21.6-46.5c11.5-13.9,24.5-26.4,36.5-39.9c5.1-5.8,7.3-7.4-2.7-12.3c-4.8-2.4-10.2-2.7-15.5-3.1
	c-1.5-0.1-2.5,0.1-2.3,2c0.5,5.2-2.9,8.2-6.6,10.9c-8.2,6-17.3,10.5-25.9,15.8c-5.7,3.5-10.7,7.8-15.1,12.8c-2.7,3.2-5,6.6-5.8,10.8
	c-0.3,1.5-0.5,3.2-2.2,3.6c-2,0.5-2.9-1.3-3.9-2.5c-3.4-4.3-4.3-9.4-3.1-14.6c0.7-3.2,1-6.3,1.1-9.6c0.2-6.1,3.1-11.4,6.8-16.2
	c0.7-0.9,3.1-1.9,1.1-3.5c-1.4-1.1-2-3.8-4.7-2.7c-16.1,6.2-30.9,14.3-43.6,26.7c4.3,3,8.7,4.8,13,6.7c4.9,2.1,9.6,4.5,13.6,8.1
	c6.6,5.9,9.5,13.1,7.4,21.8c-0.6,2.8-0.8,5.5-0.9,8.3c-0.1,9-5,15.6-11.5,21.1c-10.1,8.5-22.4,12-35,14.5c-12,2.4-23.7,1.6-35.3-2.3
	c-8.3-2.8-14.9-7.9-19.3-15.7c-13.7,16.3-29.1,30.3-47.3,40.9c-12.8,7.4-26.4,12.3-41.7,9c-10.7-2.3-19.2-7.6-25.9-16.2
	c-14.9-19.1-22-39.8-14.2-63.9c4.4-13.5,10.7-26,19.1-37.4c17.4-23.4,38.9-41.9,66.1-52.9c14.3-5.8,29.3-10,45.1-6.6
	c11.5,2.5,18.9,9.2,17,20.9c-0.3,2,0.9,3.5,1.3,5.2c1.6,8-1.4,14.6-5.9,20.8c-10.3,14.2-24.2,24.4-38.3,34.4
	c-12.4,8.8-24.4,18.2-39.3,22.7c-3.3,1-6.6,2.1-10.2,1.8c-2.5-0.2-4.8-1.2-5.1-3.9c-0.3-3.1,2-3.7,4.5-4.2
	C109.6,109.2,113,107.2,116.2,104.2L116.2,104.2z M153.5,143.1c-0.8,0.2-1.6,0.2-1.8,1.2c0,0.2,0.3,0.6,0.4,0.6
	c0.9-0.1,1.3-0.7,1.6-1.4c0.2-0.2,0.5-0.5,0.5-0.5C154,142.4,153.8,142.8,153.5,143.1L153.5,143.1z M146.9,149.5
	c1.3-1.1,3.5-1.6,3.8-3.9c-2.2-0.3-2.9,1.3-4.1,2.1c-11.4,7-22.5,14.6-35.4,18.7c-15.1,4.8-30.2,6.7-44.1-3.6
	c-0.6-0.4-1.1-0.6-1.9,0.4c9.8,9.5,21.6,12.5,34.7,10.6C118.2,170.9,133,161,146.9,149.5L146.9,149.5z M77.1,80
	c4.2-2.5,6.1-7,9.3-10.4C100,55.1,115.1,42.6,133.2,34c7.5-3.6,15.4-6.1,23.2-8.8c-3.5-0.2-6.9-0.7-10.4,0.3
	c-29.2,8.4-50.9,26.6-68.2,50.8C77.1,77.5,74.6,78.2,77.1,80L77.1,80z M360.2,178.2c0.2,0.1,0.4,0.3,0.5,0.4
	c-0.1-0.2-0.3-0.3-0.4-0.5c-0.7-7.9,2.5-14.6,7.1-20.6c19.7-25.7,45.7-43.4,74.2-57.9c8.9-4.5,18.2-7.6,29-10.2
	c-6.2-3.2-10.9-1.8-15.7,0.2c-25.1,10.5-48,24.9-71.1,38.8c-1,0.6-2.5,1.5-2.5,2.2c0.2,4.8-3.8,6.3-6.4,8.8
	c-7.6,7.4-15,15.1-18.9,25.2C353.7,170.9,355,174.8,360.2,178.2L360.2,178.2z M114.1,97.8c4.5-0.6,8.5-2.9,12.2-5.2
	c17-10.6,33.7-21.7,48.6-35c7.9-7,15.9-14.2,17.9-25.5c0.9-5.1-1-9.5-5.4-12.2c-7.7-4.8-25.3-5.4-33.8-1c4.4,0.6,8.7-0.2,13,1
	c7.3,2.2,10.3,7.6,8.1,14.9c-1.5,5-4.4,9.3-7.7,13.2c-15.7,18.7-33.9,34.8-53.4,49.5c-0.4,0.2-1.4,0-1.1,0.8
	C112.8,98.7,113.6,98.3,114.1,97.8L114.1,97.8z M321.2,143.4c-0.1-7.1,2.6-12.4,5.7-17.5c4.9-8,11-14.9,17.3-21.7
	c13.2-14.2,28.1-26.7,42.3-39.9c3.1-2.9,6.3-5.9,8.5-9.6c3.6-5.8,3.2-11.7-1.4-16.8c-4-4.5-9-7.8-14.6-10.1
	c-15.4-6.4-31.6-8.4-48.1-8.6c-8.5-0.1-16.9,0.8-24.9,3.8c-4.9,1.8-7.5,6-6.3,9.9c0.7,2.4,1.7,3.8,4.6,2.3c6.7-3.5,14-5.1,21.3-6.5
	c16.1-3.2,32.2-4.6,48.1,1.3c11,4.1,14.3,12.1,8.7,22.4c-1.5,2.7-3.3,5.4-5.5,7.6c-9.8,10.5-20,20.7-29.7,31.4
	c-9.8,10.8-19.5,21.7-25.2,35.4C320.1,131.6,317.8,136.9,321.2,143.4L321.2,143.4z M299.8,20.2c-19.8,0.9-49.4,15.1-61,28.8
	c-2.7,3.2-4.8,6.7-5.9,10.8c-1.9,7-0.2,12,5.1,14.8c1.8-9.1,3.3-11.3,11-17.8c11.5-9.8,24.4-17.1,38.5-22.4c3.5-1.3,6.6-2.4,7-7
	C294.6,24.8,296.5,22.5,299.8,20.2L299.8,20.2z M273.2,97.8c1.8,7.5-0.8,13.1-6.7,17.6c-4,3-8,5.9-12.4,8.2
	c-17.5,9.2-36.3,9.3-55.2,8.2c-3.6-0.2-7.2-0.9-12.1-1.5c4.4,4.9,9.1,6.4,13.7,7.9c17.4,5.6,34.3,2.5,51.1-3.1
	c8.6-2.9,16.4-7.1,22.3-14.3C280,113.1,279.9,103.2,273.2,97.8L273.2,97.8z M294.7,77.8c3.3-6.1,7.3-10.4,11.7-14.5
	c6.5-6.1,14.4-10,22-14.4c5.9-3.4,11.9-6.5,17.2-10.9c1.9-1.6,2-3.8,2.2-5.8c0.1-1.6-1.7-1.5-2.7-1.3c-2.3,0.6-5.7-1.8-6.7,2.1
	c-0.6,2.6-2.7,2.7-4.4,3.3c-12,4.3-23,10.2-31.6,19.9C297.2,62.1,292.6,68.2,294.7,77.8L294.7,77.8z M267.5,98.8
	c-5.6-6.7-13.8-8.6-21.6-11.1C252.3,92.9,259.9,96,267.5,98.8z M322.3,153.8c1.6,7.4,11,7.9,18.7,1.3
	C334.9,156.2,328.7,157.4,322.3,153.8z M161.9,144c3.2-0.5,10.4-7.5,11-12.2C168.8,136.4,165.1,140.5,161.9,144z M69,91.7
	c-0.2,0.2-0.4,0.4-0.5,0.7c-0.1,0.2-0.2,0.5-0.2,0.8C69,92.9,69.3,92.4,69,91.7L69,91.7z M69.7,88.9c3-0.1,3.4-1.6,4.2-4.2
	C71.2,85.6,70.7,87,69.7,88.9z M239.4,76.6c-0.1-0.2-0.3-0.4-0.4-0.6c-0.1,0.1-0.3,0.2-0.3,0.3c0,0.3,0.1,0.5,0.2,0.8
	C239.1,77,239.2,76.8,239.4,76.6z M73.1,84.3c0.1,0.1,0.2,0.2,0.4,0.3c0.1-0.2,0.3-0.4,0.3-0.7c0-0.1-0.2-0.2-0.3-0.3
	C73.3,83.9,73.2,84.1,73.1,84.3L73.1,84.3z M186.4,129.9l-0.3-0.1l0,0.2L186.4,129.9L186.4,129.9z"/>
<path fill="#6F6C6C" d="M321.2,143.4c-3.4-6.5-1.1-11.8,1-16.9c5.6-13.7,15.4-24.7,25.2-35.4c9.7-10.6,19.9-20.9,29.7-31.4
	c2.1-2.3,4-4.9,5.5-7.6c5.6-10.3,2.4-18.3-8.7-22.4c-15.9-5.9-32-4.4-48.1-1.3c-7.3,1.4-14.6,3-21.3,6.5c-2.9,1.5-3.9,0.1-4.6-2.3
	c-1.1-3.9,1.4-8,6.3-9.9c8-3,16.4-3.9,24.9-3.8c16.5,0.3,32.7,2.2,48.1,8.6c5.6,2.3,10.5,5.6,14.6,10.1c4.6,5.1,5,11,1.4,16.8
	c-2.3,3.7-5.4,6.6-8.5,9.6c-14.1,13.3-29.1,25.7-42.3,39.9c-6.3,6.8-12.5,13.7-17.3,21.7C323.8,131,321.1,136.2,321.2,143.4
	L321.2,143.4z"/>
<path fill="#6F6C6C" d="M113.7,97.4c19.5-14.7,37.7-30.8,53.4-49.5c3.3-3.9,6.2-8.2,7.7-13.2c2.2-7.3-0.8-12.7-8.1-14.9
	c-4.2-1.3-8.6-0.5-13-1c8.5-4.4,26.1-3.8,33.8,1c4.4,2.7,6.3,7.2,5.4,12.2c-2.1,11.2-10.1,18.5-17.9,25.5
	c-15,13.3-31.6,24.4-48.6,35c-3.7,2.3-7.7,4.6-12.2,5.2C113.9,97.7,113.8,97.6,113.7,97.4L113.7,97.4z"/>
<path fill="#706D6D" d="M299.8,20.2c-3.3,2.2-5.2,4.5-5.4,7c-0.4,4.6-3.5,5.7-7,7c-14.1,5.2-27,12.6-38.5,22.4
	c-7.7,6.5-9.1,8.8-11,17.8c-5.3-2.8-7-7.7-5.1-14.8c1.1-4.1,3.2-7.6,5.9-10.8C250.4,35.3,280,21.1,299.8,20.2L299.8,20.2z"/>
<path fill="#6F6C6C" d="M273.2,97.8c6.6,5.4,6.8,15.3,0.6,23c-5.9,7.2-13.6,11.4-22.2,14.3c-16.7,5.6-33.6,8.8-51.1,3.1
	c-4.7-1.5-9.3-3.1-13.7-7.9c4.9,0.6,8.5,1.3,12.1,1.5c19,1.1,37.8,1,55.2-8.2c4.4-2.3,8.5-5.2,12.4-8.2
	C272.4,110.9,275.1,105.3,273.2,97.8L273.2,97.8z"/>
<path fill="#6E6B6B" d="M360.2,178.2c-5.3-3.3-6.5-7.2-4.1-13.6c3.9-10.2,11.3-17.8,18.9-25.2c2.6-2.5,6.6-4.1,6.4-8.8
	c0-0.7,1.5-1.6,2.5-2.2C407,114.4,429.9,100,455,89.6c4.8-2,9.5-3.4,15.7-0.2c-10.8,2.6-20.2,5.7-29,10.2
	c-28.5,14.5-54.5,32.2-74.2,57.9c-4.6,6-7.9,12.7-7.1,20.6L360.2,178.2L360.2,178.2z"/>
<path fill="#6F6C6C" d="M294.7,77.8c-2-9.6,2.6-15.7,7.7-21.5c8.6-9.7,19.6-15.6,31.6-19.9c1.8-0.7,3.8-0.8,4.4-3.3
	c1-3.9,4.4-1.5,6.7-2.1c1-0.2,2.8-0.4,2.7,1.3c-0.2,2-0.3,4.2-2.2,5.8c-5.3,4.3-11.3,7.5-17.2,10.9c-7.6,4.4-15.5,8.3-22,14.4
	C302,67.3,298,71.6,294.7,77.8L294.7,77.8z"/>
<path fill="#E6E4E4" d="M77.8,76.4c17.3-24.2,39-42.5,68.2-50.8c3.5-1,6.9-0.5,10.4-0.3c-7.9,2.7-15.8,5.2-23.2,8.8
	c-18.1,8.6-33.1,21.1-46.8,35.5c-3.2,3.4-5.2,7.9-9.3,10.4C78,78.9,77.9,77.7,77.8,76.4L77.8,76.4z"/>
<path fill="#6C6969" d="M146.8,149.5c-13.9,11.5-28.7,21.4-47,24.2c-13.1,2-24.9-1.1-34.7-10.6c0.8-0.9,1.4-0.8,1.9-0.4
	c14,10.3,29,8.4,44.1,3.6c12.9-4.1,24-11.7,35.4-18.7C146.7,148.2,146.8,148.9,146.8,149.5L146.8,149.5z"/>
<path fill="#DCDADA" d="M267.5,98.8c-7.7-2.9-15.2-6-21.6-11.1C253.7,90.3,261.9,92.1,267.5,98.8z"/>
<path fill="#E4E2E2" d="M322.3,153.8c6.4,3.6,12.5,2.4,18.7,1.3C333.3,161.8,324,161.3,322.3,153.8z"/>
<path fill="#C5C3C3" d="M161.9,144c3.2-3.5,6.9-7.6,11-12.2C172.3,136.5,165.1,143.5,161.9,144z"/>
<path fill="#686565" d="M146.8,149.5c-0.1-0.6-0.2-1.2-0.2-1.9c1.2-0.8,1.9-2.4,4.1-2.1C150.4,147.9,148.2,148.3,146.8,149.5
	L146.8,149.5z"/>
<path fill="#D4D3D2" d="M69,91.7c0.3,0.8,0,1.2-0.7,1.5c0.1-0.3,0.1-0.6,0.2-0.8C68.7,92.1,68.9,91.9,69,91.7L69,91.7z"/>
<path fill="#D4D3D2" d="M69.7,88.8c1-1.8,1.5-3.2,4.2-4.2C73,87.3,72.6,88.8,69.7,88.8z"/>
<path fill="#D4D3D2" d="M77.8,76.4c0.1,1.2,0.2,2.5-0.7,3.6C74.6,78.3,77.1,77.5,77.8,76.4z"/>
<path fill="#686565" d="M153.9,143.4c-0.4,0.7-0.8,1.4-1.6,1.4c-0.1,0-0.5-0.4-0.4-0.6c0.2-1,1-1,1.8-1.2L153.9,143.4z"/>
<path fill="#706D6D" d="M239.3,76.6c-0.1,0.2-0.3,0.3-0.4,0.5c-0.1-0.3-0.2-0.5-0.2-0.8c0-0.1,0.2-0.2,0.3-0.3
	C239.1,76.2,239.2,76.4,239.3,76.6z"/>
<path fill="#6F6C6C" d="M114.1,97.8c-0.4,0.5-1.2,0.9-1.5,0.3c-0.3-0.8,0.7-0.5,1.1-0.8C113.8,97.6,113.9,97.7,114.1,97.8z"/>
<path fill="#E6E4E4" d="M73.1,84.3c0.1-0.2,0.2-0.4,0.4-0.6c0.1,0.1,0.3,0.2,0.3,0.3c-0.1,0.2-0.2,0.4-0.3,0.7
	C73.3,84.5,73.2,84.4,73.1,84.3L73.1,84.3z"/>
<polygon fill="#6F6C6C" points="186.4,129.9 186.1,130 186.2,129.8 "/>
<path fill="#686565" d="M153.5,143.1c0.2-0.4,0.4-0.8,0.9-0.2c0,0-0.3,0.4-0.5,0.5L153.5,143.1z"/>
<path fill="#6E6B6B" d="M360.3,178.1c0.1,0.2,0.3,0.3,0.4,0.5c-0.2-0.1-0.4-0.3-0.5-0.4L360.3,178.1L360.3,178.1z"/>
</svg>
