<?xml version="1.0" encoding="UTF-8"?>
<svg id="Layer_1" data-name="Layer 1" xmlns="http://www.w3.org/2000/svg" viewBox="0 0 492 219">
  <defs>
    <style>
      .cls-1 {
        fill: #e6e4e4;
      }

      .cls-1, .cls-2, .cls-3, .cls-4, .cls-5, .cls-6, .cls-7, .cls-8, .cls-9, .cls-10, .cls-11, .cls-12 {
        stroke-width: 0px;
      }

      .cls-2 {
        fill: #706d6d;
      }

      .cls-3 {
        fill: #6f6c6c;
      }

      .cls-4 {
        fill: #6e6b6b;
      }

      .cls-5 {
        fill: #e4e2e2;
      }

      .cls-6 {
        fill: #6c6969;
      }

      .cls-7 {
        fill: #161414;
      }

      .cls-8 {
        fill: #686565;
      }

      .cls-9 {
        fill: #dcdada;
      }

      .cls-10 {
        fill: #fdfdfd;
      }

      .cls-11 {
        fill: #d4d3d2;
      }

      .cls-12 {
        fill: #c5c3c3;
      }
    </style>
  </defs>
  <path class="cls-10" d="m246,218.9c-80.64,0-161.28-.03-241.91.1C.67,219.01,0,218.33,0,214.93.13,144.64.13,74.36,0,4.07,0,.67.67,0,4.09,0c161.28.11,322.55.11,483.83,0,3.41,0,4.09.67,4.09,4.07-.13,70.28-.13,140.57,0,210.85,0,3.41-.67,4.08-4.09,4.07-80.64-.12-161.28-.1-241.91-.1ZM116.19,104.25c-3.22,2.96-6.64,5.01-10.76,5.72-2.48.43-4.82,1.1-4.47,4.16.31,2.74,2.6,3.7,5.07,3.91,3.53.3,6.84-.8,10.17-1.8,14.9-4.46,26.9-13.93,39.26-22.72,14.07-10,28-20.2,38.32-34.36,4.5-6.18,7.51-12.79,5.94-20.79-.34-1.76-1.59-3.21-1.26-5.21,1.94-11.79-5.48-18.46-16.98-20.95-15.79-3.42-30.72.78-45.06,6.56-27.25,10.98-48.78,29.42-66.14,52.86-8.44,11.4-14.77,23.88-19.14,37.4-7.79,24.11-.67,44.8,14.22,63.91,6.72,8.62,15.29,13.91,25.95,16.21,15.32,3.3,28.9-1.59,41.7-9.04,18.2-10.59,33.64-24.53,47.31-40.86,4.45,7.76,11,12.87,19.31,15.71,11.54,3.94,23.27,4.68,35.28,2.31,12.67-2.49,24.92-5.98,35.03-14.46,6.54-5.48,11.39-12.07,11.51-21.1.04-2.8.2-5.5.85-8.29,2.01-8.69-.86-15.91-7.44-21.81-4.01-3.6-8.71-5.95-13.59-8.09-4.31-1.89-8.71-3.66-13-6.68,12.71-12.48,27.54-20.61,43.63-26.75,2.74-1.05,3.31,1.67,4.72,2.73,2.01,1.52-.38,2.57-1.08,3.47-3.72,4.82-6.63,10.05-6.81,16.17-.09,3.27-.37,6.36-1.07,9.57-1.14,5.16-.21,10.23,3.15,14.59.98,1.27,1.84,3.03,3.86,2.54,1.74-.42,1.9-2.09,2.19-3.57.83-4.18,3.07-7.61,5.81-10.77,4.38-5.05,9.43-9.3,15.12-12.83,8.6-5.33,17.74-9.78,25.92-15.79,3.71-2.73,7.03-5.71,6.57-10.9-.17-1.93.79-2.14,2.34-2.01,5.29.46,10.69.72,15.51,3.11,9.97,4.94,7.87,6.57,2.72,12.33-12.03,13.42-24.99,25.95-36.51,39.87-11.36,13.73-19.08,28.83-21.57,46.48-.32,2.28-.59,4.68-.24,6.92,2.02,12.96,8.6,19.49,22.3,15.5,5.29-1.54,10.24-3.83,15.18-6.2.91-.43,1.82-1.77,2.89-.63-1.12,6.53-4.68,12.12-6.13,18.41-1.23,5.37-.3,10.3,4.11,13.97,3.87,3.23,8.25,4.95,13.29,2.69,1.92-.86,4.38-1.56,3.73-4.45-.66-2.91-2.77-1.23-4.41-1.21-2.72.03-3.94-1.82-3.83-4.19.16-3.34,2.28-1.02,3.55-.91,3.1.26,5.92-.53,8.59-1.99,1.34-.73,1.69-1.96,1.44-3.4-.32-1.87-1.66-1.8-3.04-1.5-2.14.47-3.99.24-5.09-1.93-.99-1.96.1-3.52,1.15-5.02.95-1.35,1.98-2.64,3.04-3.91,14.84-17.77,33.17-31.37,52.74-43.36,14.03-8.59,28.72-15.83,45.22-18.66,4.2-.72,4.96-3.31,2.3-6.78-.68-.89-1.54-1.66-2.53-2.7,2.1-.43,3.87-.84,5.66-1.15,2.09-.37,4.58-.17,5.17-2.91.53-2.44-1.16-4.03-2.82-5.42-1.52-1.28-3.31-2.1-5.19-2.84-7.42-2.92-13.92-.05-20.51,2.86-24.2,10.69-46.32,25.04-68.91,38.59-12.5,7.5-24.85,15.34-38.59,20.55-3.91,1.48-7.94,2.7-12.15,1.73-2.88-.67-5.16-2.04-2.76-5.54,1.68-2.45,3.22-5.01,5.02-7.38,13.38-17.67,29.78-32.43,46.3-47.01,10.14-8.94,18.84-18.47,23.15-31.81,2.54-7.84,2.05-14.2-3.32-20.2-6.22-6.95-14.12-11.27-22.88-14.21-16.7-5.61-34.01-6.39-51.44-7-30.65-1.09-58.27,6.58-82.75,25.54-14.76,11.43-15.37,26.42-12.77,42.65.6,3.74,2.96,6.58,5.64,9.13,5.38,5.11,11.92,8.31,18.6,11.3,3.77,1.68,7.47,3.51,11.15,5.39,1.97,1.01,2.15,2.3.18,3.63-3.3,2.22-6.42,4.77-9.89,6.66-19.66,10.66-40.78,10.27-62.13,7.79-.94-.11-2.57-.64-2.61-1.08-.44-5.06-4.44-3.41-7.54-3.49,1.68-2.71,3.22-4.86,4.38-7.19.9-1.81,1.37-3.98-.81-5.31-2.04-1.25-3.68-.37-5.11,1.45-15.35,19.67-35.18,33.8-56.88,45.61-11.57,6.3-23.81,9.87-37.1,9.25-11.94-.56-19.71-6.82-21.54-17.07-1.25-6.98-.8-13.9.76-20.71,6.61-29,23.32-51.58,46.09-69.89,14.21-11.43,29.97-20.03,48.9-20.9,2.32-.11,5.67-.71,6.54.81,1.29,2.27-1.6,4.34-3.05,6.19-10.89,13.88-23.63,25.97-37.25,37.13-8.61,7.06-16.42,15.48-28.13,17.74-1.59.31-2.56,1.66-2.58,3.28-.01,1.82,1.09,3.09,2.78,3.74,3.65,1.41,7.14.23,10.68-.64,2.09-.51,4.08-2.3,6.84-.7Z"/>
  <path class="cls-7" d="m116.19,104.25c-2.76-1.6-4.75.19-6.84.7-3.54.86-7.03,2.05-10.68.64-1.69-.65-2.8-1.92-2.78-3.74.01-1.62.99-2.97,2.58-3.28,11.71-2.26,19.52-10.68,28.13-17.74,13.61-11.16,26.35-23.25,37.25-37.13,1.45-1.84,4.34-3.91,3.05-6.19-.87-1.52-4.22-.92-6.54-.81-18.93.87-34.69,9.48-48.9,20.9-22.77,18.31-39.47,40.89-46.09,69.89-1.55,6.81-2.01,13.73-.76,20.71,1.84,10.25,9.6,16.51,21.54,17.07,13.28.62,25.52-2.95,37.1-9.25,21.7-11.81,41.53-25.94,56.88-45.61,1.42-1.82,3.06-2.7,5.11-1.45,2.18,1.33,1.72,3.5.81,5.31-1.16,2.33-2.7,4.47-4.38,7.19,3.1.09,7.1-1.57,7.54,3.49.04.44,1.67.97,2.61,1.08,21.35,2.48,42.47,2.88,62.13-7.79,3.48-1.89,6.6-4.44,9.89-6.66,1.97-1.33,1.8-2.62-.18-3.63-3.68-1.87-7.38-3.7-11.15-5.39-6.68-2.99-13.22-6.19-18.6-11.3-2.68-2.55-5.04-5.39-5.64-9.13-2.6-16.23-1.99-31.22,12.77-42.65,24.47-18.96,52.09-26.63,82.75-25.54,17.42.62,34.73,1.4,51.44,7,8.76,2.94,16.66,7.27,22.88,14.21,5.37,6,5.85,12.36,3.32,20.2-4.31,13.34-13.02,22.86-23.15,31.81-16.52,14.58-32.92,29.34-46.3,47.01-1.79,2.37-3.33,4.93-5.02,7.38-2.4,3.5-.12,4.87,2.76,5.54,4.21.98,8.24-.25,12.15-1.73,13.74-5.2,26.09-13.05,38.59-20.55,22.59-13.55,44.71-27.9,68.91-38.59,6.58-2.91,13.09-5.77,20.51-2.86,1.88.74,3.67,1.57,5.19,2.84,1.66,1.39,3.35,2.98,2.82,5.42-.59,2.74-3.08,2.55-5.17,2.91-1.79.32-3.56.72-5.66,1.15.99,1.05,1.84,1.81,2.53,2.7,2.65,3.47,1.9,6.06-2.3,6.78-16.5,2.83-31.2,10.07-45.22,18.66-19.57,11.99-37.91,25.59-52.74,43.36-1.06,1.27-2.1,2.56-3.04,3.91-1.05,1.5-2.14,3.06-1.15,5.02,1.09,2.17,2.95,2.4,5.09,1.93,1.38-.3,2.72-.37,3.04,1.5.25,1.43-.1,2.66-1.44,3.4-2.67,1.46-5.5,2.25-8.59,1.99-1.26-.11-3.39-2.43-3.55.91-.11,2.37,1.11,4.22,3.83,4.19,1.65-.02,3.76-1.69,4.41,1.21.65,2.9-1.81,3.59-3.73,4.45-5.04,2.26-9.42.54-13.29-2.69-4.41-3.68-5.34-8.61-4.11-13.97,1.45-6.29,5.01-11.88,6.13-18.41-1.08-1.14-1.99.2-2.89.63-4.94,2.37-9.9,4.66-15.18,6.2-13.69,3.99-20.28-2.54-22.3-15.5-.35-2.24-.08-4.64.24-6.92,2.49-17.65,10.2-32.74,21.57-46.48,11.52-13.92,24.49-26.45,36.51-39.87,5.15-5.75,7.26-7.38-2.72-12.33-4.81-2.39-10.22-2.65-15.51-3.11-1.55-.13-2.51.08-2.34,2.01.46,5.18-2.85,8.17-6.57,10.9-8.18,6.01-17.32,10.46-25.92,15.79-5.69,3.53-10.74,7.78-15.12,12.83-2.74,3.16-4.98,6.59-5.81,10.77-.29,1.48-.45,3.15-2.19,3.57-2.02.48-2.88-1.27-3.86-2.54-3.37-4.35-4.29-9.42-3.15-14.59.71-3.22.98-6.3,1.07-9.57.17-6.13,3.08-11.36,6.81-16.17.7-.9,3.09-1.94,1.08-3.47-1.4-1.06-1.97-3.78-4.72-2.73-16.09,6.15-30.92,14.28-43.63,26.75,4.29,3.02,8.69,4.79,13,6.68,4.88,2.14,9.58,4.5,13.59,8.09,6.58,5.9,9.45,13.12,7.44,21.81-.65,2.79-.81,5.49-.85,8.29-.12,9.03-4.98,15.62-11.51,21.1-10.11,8.47-22.35,11.96-35.03,14.46-12.01,2.36-23.74,1.62-35.28-2.31-8.31-2.84-14.86-7.95-19.31-15.71-13.67,16.33-29.11,30.27-47.31,40.86-12.8,7.45-26.38,12.34-41.7,9.04-10.66-2.3-19.23-7.59-25.95-16.21-14.89-19.1-22.01-39.79-14.22-63.91,4.37-13.51,10.7-26,19.14-37.4,17.36-23.43,38.88-41.88,66.14-52.86,14.34-5.78,29.26-9.97,45.06-6.56,11.5,2.49,18.92,9.16,16.98,20.95-.33,2,.92,3.45,1.26,5.21,1.57,8.01-1.44,14.62-5.94,20.79-10.31,14.16-24.25,24.36-38.32,34.36-12.36,8.79-24.35,18.25-39.26,22.72-3.34,1-6.64,2.1-10.17,1.8-2.47-.21-4.75-1.17-5.07-3.91-.35-3.05,1.99-3.73,4.47-4.16,4.12-.71,7.54-2.76,10.76-5.72Zm37.34,38.86c-.75.16-1.59.21-1.75,1.18-.03.17.3.59.45.58.89-.05,1.29-.72,1.64-1.43.18-.18.54-.5.52-.53-.4-.56-.63-.16-.86.19Zm-6.68,6.38c1.33-1.15,3.52-1.56,3.82-3.91-2.18-.31-2.87,1.31-4.06,2.05-11.38,7.01-22.49,14.59-35.38,18.69-15.14,4.81-30.16,6.67-44.12-3.58-.57-.42-1.13-.56-1.93.38,9.78,9.49,21.6,12.54,34.69,10.55,18.3-2.78,33.08-12.72,46.99-24.17Zm-69.78-69.5c4.16-2.53,6.12-7.03,9.33-10.44,13.64-14.47,28.69-26.92,46.77-35.52,7.5-3.57,15.39-6.07,23.25-8.75-3.53-.22-6.93-.7-10.42.3-29.2,8.36-50.91,26.64-68.21,50.84-.65,1.11-3.15,1.83-.73,3.57Zm283.13,98.17c.18.13.35.26.53.39-.14-.16-.28-.33-.42-.49-.71-7.93,2.53-14.56,7.15-20.6,19.68-25.72,45.7-43.42,74.21-57.88,8.85-4.49,18.25-7.63,29.03-10.21-6.19-3.25-10.94-1.8-15.72.19-25.06,10.48-47.97,24.86-71.15,38.77-.96.57-2.49,1.5-2.46,2.2.25,4.75-3.76,6.28-6.37,8.82-7.64,7.42-14.98,15.07-18.89,25.23-2.44,6.33-1.15,10.25,4.1,13.58ZM114.06,97.84c4.54-.64,8.46-2.92,12.18-5.25,16.99-10.59,33.67-21.69,48.64-35.02,7.87-7,15.87-14.24,17.95-25.46.94-5.07-.96-9.51-5.35-12.24-7.72-4.82-25.32-5.37-33.79-1.01,4.37.58,8.72-.24,12.96,1.02,7.29,2.18,10.29,7.6,8.11,14.86-1.51,5.03-4.4,9.26-7.71,13.19-15.73,18.69-33.89,34.8-53.37,49.48-.42.21-1.43-.02-1.09.75.24.54,1.04.16,1.47-.33Zm207.14,45.56c-.09-7.15,2.6-12.37,5.73-17.53,4.85-7.98,11.01-14.9,17.31-21.7,13.2-14.25,28.15-26.65,42.29-39.92,3.14-2.94,6.26-5.86,8.54-9.58,3.57-5.84,3.17-11.7-1.4-16.83-4.03-4.54-9-7.81-14.56-10.13-15.4-6.41-31.63-8.35-48.13-8.65-8.49-.15-16.89.78-24.92,3.78-4.91,1.84-7.47,5.97-6.33,9.86.7,2.37,1.73,3.8,4.63,2.3,6.69-3.47,14.04-5.07,21.34-6.51,16.08-3.17,32.17-4.6,48.07,1.27,11.05,4.08,14.31,12.09,8.7,22.35-1.49,2.72-3.33,5.36-5.45,7.63-9.83,10.52-20,20.74-29.69,31.38-9.81,10.77-19.53,21.72-25.17,35.42-2.08,5.05-4.37,10.35-.96,16.86Zm-21.4-123.15c-19.79.9-49.38,15.1-60.98,28.76-2.71,3.19-4.83,6.73-5.95,10.8-1.94,7.04-.22,11.98,5.07,14.76,1.84-9.08,3.3-11.3,10.97-17.84,11.49-9.79,24.4-17.15,38.52-22.39,3.49-1.3,6.61-2.4,7-7.03.21-2.52,2.06-4.8,5.37-7.05Zm-26.57,77.52c1.83,7.47-.84,13.13-6.69,17.6-3.95,3.02-7.99,5.89-12.41,8.22-17.46,9.2-36.26,9.32-55.24,8.19-3.64-.22-7.24-.9-12.11-1.54,4.41,4.85,9.08,6.42,13.74,7.93,17.42,5.64,34.33,2.46,51.06-3.13,8.62-2.88,16.39-7.12,22.25-14.33,6.2-7.61,6.04-17.5-.6-22.95Zm21.43-19.99c3.31-6.11,7.34-10.43,11.68-14.49,6.5-6.07,14.39-10.01,21.99-14.4,5.88-3.39,11.91-6.52,17.2-10.87,1.92-1.58,2.05-3.78,2.23-5.84.14-1.62-1.69-1.51-2.66-1.26-2.27.6-5.71-1.79-6.67,2.14-.63,2.56-2.66,2.69-4.44,3.34-12,4.35-23.05,10.23-31.64,19.91-5.12,5.77-9.72,11.89-7.68,21.47Zm-27.15,21.07c-5.65-6.74-13.83-8.55-21.64-11.1,6.45,5.13,13.98,8.21,21.64,11.1Zm54.8,54.99c1.65,7.45,11.01,7.91,18.7,1.31-6.15,1.08-12.3,2.24-18.7-1.31Zm-160.39-9.87c3.18-.47,10.43-7.46,11.01-12.19-4.17,4.61-7.84,8.68-11.01,12.19Zm-92.87-52.31c-.17.22-.37.42-.49.66-.12.25-.15.54-.23.82.7-.26.99-.72.71-1.48Zm.62-2.8c2.96-.09,3.37-1.57,4.18-4.24-2.66,1.01-3.17,2.41-4.18,4.24Zm169.69-12.23c-.14-.21-.27-.42-.41-.62-.1.11-.29.23-.28.32.04.27.15.53.24.79.15-.16.29-.32.45-.49Zm-166.28,7.66c.13.13.24.24.36.35.11-.22.26-.43.31-.67.02-.08-.2-.22-.31-.33-.12.22-.24.43-.36.64Zm113.35,45.64l-.26-.14-.03.21.28-.08Z"/>
  <path class="cls-3" d="m321.2,143.39c-3.41-6.51-1.12-11.81.96-16.86,5.64-13.7,15.36-24.66,25.17-35.42,9.7-10.64,19.86-20.86,29.69-31.38,2.12-2.27,3.96-4.9,5.45-7.63,5.62-10.27,2.35-18.27-8.7-22.35-15.9-5.87-32-4.44-48.07-1.27-7.3,1.44-14.65,3.04-21.34,6.51-2.9,1.5-3.93.08-4.63-2.3-1.14-3.89,1.42-8.02,6.33-9.86,8.02-3,16.42-3.93,24.92-3.78,16.5.3,32.74,2.24,48.13,8.65,5.56,2.32,10.53,5.59,14.56,10.13,4.56,5.13,4.97,10.99,1.4,16.83-2.28,3.72-5.4,6.64-8.54,9.58-14.14,13.26-29.09,25.67-42.29,39.92-6.3,6.8-12.46,13.72-17.31,21.7-3.13,5.16-5.83,10.38-5.73,17.53Z"/>
  <path class="cls-3" d="m113.68,97.41c19.49-14.67,37.65-30.78,53.38-49.47,3.31-3.93,6.2-8.16,7.71-13.19,2.18-7.26-.81-12.69-8.11-14.86-4.23-1.26-8.59-.45-12.96-1.02,8.46-4.37,26.07-3.81,33.79,1.01,4.39,2.74,6.29,7.17,5.35,12.24-2.08,11.22-10.08,18.46-17.95,25.46-14.97,13.33-31.65,24.43-48.64,35.02-3.73,2.32-7.65,4.6-12.18,5.25-.13-.14-.25-.28-.38-.42Z"/>
  <path class="cls-2" d="m299.8,20.25c-3.31,2.24-5.16,4.52-5.37,7.05-.39,4.63-3.51,5.73-7,7.03-14.13,5.25-27.03,12.6-38.52,22.39-7.67,6.54-9.13,8.76-10.97,17.84-5.29-2.77-7-7.71-5.07-14.76,1.12-4.07,3.24-7.61,5.95-10.8,11.6-13.66,41.19-27.86,60.98-28.76Z"/>
  <path class="cls-3" d="m273.23,97.77c6.64,5.44,6.8,15.33.6,22.95-5.87,7.21-13.63,11.45-22.25,14.33-16.73,5.59-33.64,8.77-51.06,3.13-4.66-1.51-9.33-3.08-13.74-7.93,4.87.63,8.48,1.32,12.11,1.54,18.98,1.13,37.79,1.01,55.24-8.19,4.42-2.33,8.46-5.2,12.41-8.22,5.85-4.47,8.52-10.13,6.69-17.6Z"/>
  <path class="cls-4" d="m360.19,178.16c-5.26-3.32-6.54-7.25-4.1-13.58,3.91-10.16,11.26-17.81,18.89-25.23,2.61-2.54,6.62-4.06,6.37-8.82-.04-.7,1.5-1.62,2.46-2.2,23.17-13.91,46.09-28.3,71.15-38.77,4.77-2,9.53-3.44,15.72-.19-10.78,2.58-20.18,5.72-29.03,10.21-28.51,14.46-54.53,32.16-74.21,57.88-4.62,6.04-7.85,12.67-7.15,20.6l-.1.1Z"/>
  <path class="cls-3" d="m294.66,77.77c-2.04-9.58,2.56-15.69,7.68-21.47,8.59-9.68,19.64-15.56,31.64-19.91,1.79-.65,3.82-.77,4.44-3.34.96-3.92,4.4-1.54,6.67-2.14.97-.25,2.8-.37,2.66,1.26-.18,2.05-.31,4.25-2.23,5.84-5.28,4.35-11.32,7.48-17.2,10.87-7.6,4.39-15.49,8.33-21.99,14.4-4.35,4.06-8.37,8.37-11.68,14.49Z"/>
  <path class="cls-1" d="m77.79,76.43c17.29-24.2,39-42.48,68.21-50.84,3.49-1,6.88-.53,10.42-.3-7.86,2.68-15.75,5.18-23.25,8.75-18.08,8.6-33.13,21.06-46.77,35.52-3.21,3.41-5.18,7.91-9.29,10.44.89-1.07.77-2.32.69-3.57Z"/>
  <path class="cls-6" d="m146.84,149.49c-13.91,11.46-28.69,21.4-46.99,24.17-13.08,1.98-24.91-1.06-34.69-10.55.8-.93,1.36-.8,1.93-.38,13.96,10.26,28.98,8.39,44.12,3.58,12.89-4.09,24-11.68,35.38-18.68.08.62.16,1.24.24,1.85Z"/>
  <path class="cls-9" d="m267.5,98.85c-7.66-2.89-15.19-5.97-21.64-11.1,7.81,2.55,15.99,4.36,21.64,11.1Z"/>
  <path class="cls-5" d="m322.3,153.84c6.4,3.55,12.55,2.39,18.7,1.31-7.69,6.6-17.05,6.14-18.7-1.31Z"/>
  <path class="cls-12" d="m161.91,143.96c3.18-3.52,6.85-7.58,11.01-12.19-.58,4.74-7.83,11.73-11.01,12.19Z"/>
  <path class="cls-8" d="m146.84,149.49c-.08-.62-.16-1.23-.24-1.85,1.19-.75,1.88-2.37,4.06-2.06-.3,2.35-2.49,2.76-3.82,3.91Z"/>
  <path class="cls-11" d="m69.04,91.65c.27.76-.01,1.22-.71,1.48.07-.27.11-.57.23-.82.11-.24.32-.44.49-.66Z"/>
  <path class="cls-11" d="m69.66,88.85c1-1.84,1.51-3.23,4.18-4.24-.81,2.67-1.22,4.15-4.18,4.24Z"/>
  <path class="cls-11" d="m77.79,76.43c.08,1.24.19,2.49-.69,3.57-2.46-1.73.04-2.46.69-3.57Z"/>
  <path class="cls-8" d="m153.87,143.45c-.35.71-.76,1.38-1.64,1.42-.15,0-.48-.41-.45-.58.16-.97,1.01-1.02,1.75-1.18l.34.34Z"/>
  <path class="cls-2" d="m239.34,76.62c-.15.17-.3.33-.45.49-.09-.26-.2-.52-.24-.79-.01-.09.18-.21.28-.32.13.2.27.41.41.62Z"/>
  <path class="cls-3" d="m114.06,97.84c-.43.49-1.22.88-1.47.33-.34-.77.67-.54,1.09-.75.13.14.25.28.38.42Z"/>
  <path class="cls-1" d="m73.06,84.28c.12-.21.24-.42.36-.64.11.11.33.25.31.33-.05.23-.2.45-.31.67-.11-.11-.22-.22-.36-.35Z"/>
  <polygon class="cls-3" points="186.42 129.92 186.13 130 186.16 129.79 186.42 129.92"/>
  <path class="cls-8" d="m153.53,143.11c.23-.36.45-.76.86-.19.03.04-.34.35-.52.53,0,0-.34-.34-.34-.34Z"/>
  <path class="cls-4" d="m360.29,178.06c.14.16.28.33.42.49-.18-.13-.35-.26-.53-.39,0,0,.1-.1.1-.1Z"/>
</svg>